<svg width="90" height="90" viewBox="0 0 90 90" fill="none" xmlns="http://www.w3.org/2000/svg">
<circle cx="45" cy="45" r="45" fill="#C6C5DF"/>
<g clip-path="url(#clip0_624_403)">
<path d="M23 42.9448C23 33.9034 23 29.3827 25.6363 26.4394C25.8891 26.1572 26.1572 25.8891 26.4394 25.6363C29.3827 23 33.9034 23 42.9448 23H46.0708C55.1122 23 59.6329 23 62.5763 25.6363C62.8585 25.8891 63.1266 26.1572 63.3793 26.4394C66.0156 29.3827 66.0156 33.9034 66.0156 42.9448V46.0708C66.0156 55.1122 66.0156 59.6329 63.3793 62.5763C63.1266 62.8585 62.8585 63.1266 62.5763 63.3793C59.6329 66.0156 55.1122 66.0156 46.0708 66.0156H23V42.9448Z" fill="white"/>
<circle cx="25.3881" cy="64.1431" r="13.7573" fill="black"/>
<rect y="0.881168" width="20.6085" height="42.8543" rx="10.3042" transform="matrix(0.731217 0.682145 -0.731217 0.682145 50.6311 -2.81257)" fill="#3B71ED" stroke="black" stroke-width="1.29176"/>
<rect y="0.881168" width="20.6085" height="42.8543" rx="10.3042" transform="matrix(0.731217 0.682145 -0.731217 0.682145 65.3006 11.509)" fill="#EE674E" stroke="black" stroke-width="1.29176"/>
<rect y="0.881168" width="20.6085" height="42.8543" rx="10.3042" transform="matrix(0.731217 0.682145 -0.731217 0.682145 79.8382 26.3376)" fill="#A888CE" stroke="black" stroke-width="1.29176"/>
</g>
<path d="M22.3541 66.0156V66.6615H23H46.0708H46.1184C50.5989 66.6615 54.0223 66.6615 56.6907 66.327C59.3845 65.9892 61.3982 65.3016 63.0072 63.8605C63.307 63.5919 63.5919 63.307 63.8605 63.0072C65.3016 61.3982 65.9892 59.3845 66.327 56.6907C66.6615 54.0223 66.6615 50.5989 66.6615 46.1184V46.0708V42.9448V42.8972C66.6615 38.4168 66.6615 34.9933 66.327 32.325C65.9892 29.6311 65.3016 27.6174 63.8605 26.0084C63.5919 25.7086 63.307 25.4237 63.0072 25.1552C61.3982 23.7141 59.3845 23.0264 56.6907 22.6887C54.0223 22.3541 50.5989 22.3541 46.1184 22.3541H46.0708H42.9448H42.8972C38.4168 22.3541 34.9933 22.3541 32.325 22.6887C29.6311 23.0264 27.6174 23.7141 26.0084 25.1552C25.7086 25.4237 25.4237 25.7086 25.1552 26.0084C23.7141 27.6174 23.0264 29.6311 22.6887 32.325C22.3541 34.9933 22.3541 38.4168 22.3541 42.8972V42.9448V66.0156Z" stroke="black" stroke-width="1.29176"/>
<defs>
<clipPath id="clip0_624_403">
<path d="M23 42.9448C23 33.9034 23 29.3827 25.6363 26.4394C25.8891 26.1572 26.1572 25.8891 26.4394 25.6363C29.3827 23 33.9034 23 42.9448 23H46.0708C55.1122 23 59.6329 23 62.5763 25.6363C62.8585 25.8891 63.1266 26.1572 63.3793 26.4394C66.0156 29.3827 66.0156 33.9034 66.0156 42.9448V46.0708C66.0156 55.1122 66.0156 59.6329 63.3793 62.5763C63.1266 62.8585 62.8585 63.1266 62.5763 63.3793C59.6329 66.0156 55.1122 66.0156 46.0708 66.0156H23V42.9448Z" fill="white"/>
</clipPath>
</defs>
</svg>
