<svg width="374" height="374" viewBox="0 0 374 374" fill="none" xmlns="http://www.w3.org/2000/svg">
<g clip-path="url(#clip0_133_146)">
<path d="M6 173.846C6 97.7581 6 59.714 28.1858 34.9441C30.313 32.5692 32.5692 30.313 34.9441 28.1858C59.714 6 97.7581 6 173.846 6H200.154C276.242 6 314.286 6 339.056 28.1858C341.431 30.313 343.687 32.5692 345.814 34.9441C368 59.714 368 97.7581 368 173.846V200.154C368 276.242 368 314.286 345.814 339.056C343.687 341.431 341.431 343.687 339.056 345.814C314.286 368 276.242 368 200.154 368H6V173.846Z" fill="white"/>
<circle cx="26.1373" cy="352.238" r="115.775" fill="black"/>
<rect y="7.41551" width="173.432" height="360.643" rx="86.7158" transform="matrix(0.731217 0.682145 -0.731217 0.682145 238.524 -211.231)" fill="#3B71ED" stroke="black" stroke-width="10.8709"/>
<rect y="7.41551" width="173.432" height="360.643" rx="86.7158" transform="matrix(0.731217 0.682145 -0.731217 0.682145 362.019 -90.7067)" fill="#EE674E" stroke="black" stroke-width="10.8709"/>
<rect y="7.41551" width="173.432" height="360.643" rx="86.7158" transform="matrix(0.731217 0.682145 -0.731217 0.682145 484.322 34.0912)" fill="#A888CE" stroke="black" stroke-width="10.8709"/>
</g>
<path d="M3 368V371H6H200.154H200.377C238.232 371 266.918 371 289.222 368.203C311.645 365.392 328.035 359.713 341.057 348.049C343.514 345.848 345.848 343.514 348.049 341.057C359.713 328.035 365.392 311.645 368.203 289.222C371 266.918 371 238.232 371 200.377V200.154V173.846V173.623C371 135.768 371 107.082 368.203 84.7776C365.392 62.3548 359.713 45.9653 348.049 32.9426C345.848 30.4857 343.514 28.1517 341.057 25.9511C328.035 14.287 311.645 8.60793 289.222 5.79653C266.918 2.99998 238.232 2.99999 200.378 3H200.154H173.846H173.622C135.768 2.99999 107.082 2.99998 84.7776 5.79653C62.3548 8.60793 45.9653 14.287 32.9426 25.9511C30.4857 28.1517 28.1517 30.4857 25.9511 32.9426C14.287 45.9653 8.60793 62.3548 5.79653 84.7776C2.99998 107.082 2.99999 135.768 3 173.622V173.846V368Z" stroke="black" stroke-width="6"/>
<defs>
<clipPath id="clip0_133_146">
<path d="M6 173.846C6 97.7581 6 59.714 28.1858 34.9441C30.313 32.5692 32.5692 30.313 34.9441 28.1858C59.714 6 97.7581 6 173.846 6H200.154C276.242 6 314.286 6 339.056 28.1858C341.431 30.313 343.687 32.5692 345.814 34.9441C368 59.714 368 97.7581 368 173.846V200.154C368 276.242 368 314.286 345.814 339.056C343.687 341.431 341.431 343.687 339.056 345.814C314.286 368 276.242 368 200.154 368H6V173.846Z" fill="white"/>
</clipPath>
</defs>
</svg>
