<svg width="135" height="33" viewBox="0 0 135 33" fill="none" xmlns="http://www.w3.org/2000/svg">
<path fill-rule="evenodd" clip-rule="evenodd" d="M6.88391 13.7118L13.3101 9.23789C13.0764 10.5444 13.0868 12.3979 14.1333 13.875C15.9008 16.3699 15.2637 19.6025 14.1016 21.2222C13.1692 22.5218 12.3576 24.4589 12.8046 26.2709L6.97476 22.0882L6.88391 13.7118ZM6.18227 14.2003L1.00477 17.8049L6.26227 21.577L6.18227 14.2003ZM16.4051 19.9589L16.1494 20.5656L16.1506 20.5212C16.1567 20.2989 16.2535 20.0997 16.4051 19.9589Z" fill="#F8BC64"/>
<path d="M26.6055 9.94575L26.5543 11.8464C26.544 12.2266 26.2349 12.5305 25.8546 12.5342L17.8312 12.6136C17.4377 12.6175 17.1232 12.942 17.1315 13.3354L17.1765 15.463C17.1846 15.8472 17.4983 16.1546 17.8826 16.1549L24.535 16.1604C24.9223 16.1608 25.2372 16.4727 25.2413 16.86L25.2608 18.7412C25.2649 19.1316 24.9517 19.4514 24.5613 19.4554L17.731 19.5264C17.351 19.5304 17.0422 19.834 17.0317 20.2138L16.9701 22.4429C16.9593 22.837 17.2728 23.1638 17.667 23.1693L25.8014 23.2823C26.2016 23.2878 26.5174 23.6243 26.4976 24.024L26.4066 25.8665C26.3878 26.2468 26.071 26.5439 25.6902 26.5384L14.35 26.3733C14.1269 26.3701 13.9108 26.2647 13.8123 26.0646C12.9305 24.2712 15.0188 21.8164 15.6519 20.2702C16.3747 18.5049 16.6101 16.2063 15.1512 14.147C14.0711 12.6224 13.9764 10.7821 14.2066 9.6827C14.2667 9.39539 14.5339 9.21489 14.8274 9.21502L25.8991 9.21981C26.2969 9.21998 26.6162 9.54815 26.6055 9.94575Z" fill="#3B71ED"/>
<path d="M6.24093 21.5652L6.17419 14.2309L0.999893 17.8049L6.24093 21.5652Z" fill="black" stroke="#352B2A" stroke-width="0.176724"/>
<path d="M71.1092 32.4078C71.0542 32.4078 71.0085 32.3712 70.9719 32.2979C70.9353 32.243 70.917 32.1698 70.917 32.0783V29.5526C70.917 29.4611 70.9444 29.3788 70.9993 29.3055C71.0726 29.2506 71.1549 29.2232 71.2464 29.2232C72.0151 29.2049 72.6191 29.1408 73.0583 29.031C73.5159 28.9212 73.8728 28.7107 74.129 28.3996C74.4035 28.0885 74.614 27.6309 74.7604 27.0269C74.7787 26.9903 74.7787 26.9354 74.7604 26.8622L70.2581 13.1905C70.2398 13.1539 70.2307 13.1081 70.2307 13.0532C70.2307 12.8885 70.3313 12.8062 70.5326 12.8062H73.9643C74.1656 12.8062 74.2937 12.8977 74.3486 13.0807L76.6547 21.9755C76.673 22.0304 76.7005 22.0579 76.7371 22.0579C76.7737 22.0579 76.8011 22.0304 76.8194 21.9755L79.1255 13.0807C79.1804 12.8977 79.3085 12.8062 79.5098 12.8062H82.8591C82.969 12.8062 83.0422 12.8428 83.0788 12.916C83.1337 12.9709 83.1428 13.0624 83.1062 13.1905L78.3568 27.4662C77.8993 28.8022 77.4326 29.7997 76.9567 30.4586C76.4808 31.1358 75.8128 31.6299 74.9526 31.9411C74.0924 32.2522 72.8753 32.4078 71.3013 32.4078H71.1092Z" fill="#3B71ED"/>
<path d="M62.6906 12.6138C63.8803 12.6138 64.9418 12.8242 65.8752 13.2452C66.8086 13.6478 67.5315 14.2061 68.044 14.9198C68.5748 15.6336 68.8401 16.4298 68.8401 17.3083V26.6149C68.8401 26.7064 68.8035 26.7888 68.7303 26.862C68.6754 26.9169 68.6022 26.9444 68.5107 26.9444H65.2987C65.2072 26.9444 65.1248 26.9169 65.0516 26.862C64.9967 26.7888 64.9692 26.7064 64.9692 26.6149V25.709C64.9692 25.6541 64.9509 25.6174 64.9143 25.5991C64.8777 25.5808 64.8411 25.5991 64.8045 25.6541C64.0358 26.6607 62.8004 27.164 61.0983 27.164C59.6708 27.164 58.5177 26.8162 57.6392 26.1208C56.7607 25.4253 56.3215 24.4004 56.3215 23.046C56.3215 21.6367 56.8156 20.5478 57.8039 19.7791C58.7923 18.9921 60.2015 18.5986 62.0317 18.5986H64.832C64.9235 18.5986 64.9692 18.5528 64.9692 18.4613V17.8573C64.9692 17.2534 64.7862 16.7867 64.4202 16.4572C64.0541 16.1095 63.5051 15.9356 62.773 15.9356C62.2056 15.9356 61.7298 16.0363 61.3454 16.2376C60.9794 16.4389 60.7414 16.7226 60.6316 17.0886C60.5767 17.29 60.4578 17.3815 60.2747 17.3632L56.9529 16.9239C56.7333 16.8873 56.6326 16.805 56.6509 16.6768C56.7241 15.9082 57.0261 15.2127 57.5569 14.5904C58.1059 13.9681 58.8197 13.4831 59.6982 13.1354C60.595 12.7876 61.5925 12.6138 62.6906 12.6138ZM62.1416 24.2814C62.9286 24.2814 63.5966 24.0709 64.1456 23.65C64.6947 23.229 64.9692 22.6891 64.9692 22.0302V21.0419C64.9692 20.9504 64.9235 20.9046 64.832 20.9046H62.8553C62.0317 20.9046 61.382 21.0602 60.9062 21.3713C60.4486 21.6825 60.2198 22.1217 60.2198 22.6891C60.2198 23.1833 60.3937 23.5768 60.7414 23.8696C61.0892 24.1441 61.5559 24.2814 62.1416 24.2814Z" fill="#3B71ED"/>
<path d="M48.9094 27.1364C47.6831 27.1364 46.6125 26.9625 45.6973 26.6148C44.7822 26.2671 44.0685 25.7821 43.556 25.1598C43.0618 24.5375 42.8148 23.8329 42.8148 23.0459V22.7714C42.8148 22.6798 42.8422 22.6066 42.8971 22.5517C42.9703 22.4785 43.0527 22.4419 43.1442 22.4419H46.1915C46.283 22.4419 46.3562 22.4785 46.4111 22.5517C46.4843 22.6066 46.5209 22.6798 46.5209 22.7714V22.7988C46.5209 23.2015 46.7406 23.5492 47.1798 23.842C47.6374 24.1166 48.2047 24.2538 48.8819 24.2538C49.5042 24.2538 50.0075 24.1349 50.3919 23.8969C50.7762 23.6407 50.9684 23.3296 50.9684 22.9635C50.9684 22.6341 50.8036 22.387 50.4742 22.2223C50.1448 22.0576 49.6049 21.8837 48.8545 21.7007C47.9943 21.4811 47.3171 21.2706 46.8229 21.0693C45.6516 20.6666 44.7182 20.1724 44.0227 19.5868C43.3272 19.0011 42.9795 18.1592 42.9795 17.0611C42.9795 15.7067 43.5011 14.636 44.5443 13.8491C45.6058 13.0438 47.006 12.6411 48.7447 12.6411C49.916 12.6411 50.9409 12.8333 51.8194 13.2176C52.6979 13.5837 53.3751 14.1053 53.851 14.7825C54.3451 15.4596 54.5922 16.2283 54.5922 17.0885C54.5922 17.18 54.5556 17.2624 54.4824 17.3356C54.4275 17.3905 54.3543 17.418 54.2628 17.418H51.3253C51.2337 17.418 51.1514 17.3905 51.0782 17.3356C51.0233 17.2624 50.9958 17.18 50.9958 17.0885C50.9958 16.6859 50.7853 16.3473 50.3644 16.0728C49.9617 15.7982 49.4218 15.661 48.7447 15.661C48.1407 15.661 47.6465 15.7708 47.2622 15.9904C46.8778 16.21 46.6857 16.512 46.6857 16.8964C46.6857 17.2624 46.8687 17.5369 47.2347 17.72C47.6191 17.903 48.2505 18.0952 49.129 18.2965C49.3303 18.3514 49.5591 18.4154 49.8153 18.4887C50.0716 18.5436 50.3461 18.6168 50.6389 18.7083C51.9384 19.0926 52.9633 19.5868 53.7137 20.1908C54.4641 20.7947 54.8393 21.6732 54.8393 22.8263C54.8393 24.1806 54.2994 25.2421 53.2195 26.0108C52.158 26.7612 50.7213 27.1364 48.9094 27.1364Z" fill="#3B71ED"/>
<path d="M35.3176 27.1364C34.0913 27.1364 33.0207 26.9625 32.1056 26.6148C31.1904 26.2671 30.4767 25.7821 29.9642 25.1598C29.47 24.5375 29.223 23.8329 29.223 23.0459V22.7714C29.223 22.6798 29.2504 22.6066 29.3053 22.5517C29.3785 22.4785 29.4609 22.4419 29.5524 22.4419H32.5997C32.6912 22.4419 32.7644 22.4785 32.8193 22.5517C32.8925 22.6066 32.9291 22.6798 32.9291 22.7714V22.7988C32.9291 23.2015 33.1488 23.5492 33.588 23.842C34.0456 24.1166 34.6129 24.2538 35.2901 24.2538C35.9124 24.2538 36.4157 24.1349 36.8001 23.8969C37.1844 23.6407 37.3766 23.3296 37.3766 22.9635C37.3766 22.6341 37.2119 22.387 36.8824 22.2223C36.553 22.0576 36.0131 21.8837 35.2627 21.7007C34.4025 21.4811 33.7253 21.2706 33.2311 21.0693C32.0598 20.6666 31.1264 20.1724 30.4309 19.5868C29.7354 19.0011 29.3877 18.1592 29.3877 17.0611C29.3877 15.7067 29.9093 14.636 30.9525 13.8491C32.014 13.0438 33.4142 12.6411 35.1529 12.6411C36.3242 12.6411 37.3491 12.8333 38.2276 13.2176C39.1061 13.5837 39.7833 14.1053 40.2592 14.7825C40.7533 15.4596 41.0004 16.2283 41.0004 17.0885C41.0004 17.18 40.9638 17.2624 40.8906 17.3356C40.8357 17.3905 40.7625 17.418 40.671 17.418H37.7335C37.642 17.418 37.5596 17.3905 37.4864 17.3356C37.4315 17.2624 37.404 17.18 37.404 17.0885C37.404 16.6859 37.1935 16.3473 36.7726 16.0728C36.37 15.7982 35.83 15.661 35.1529 15.661C34.5489 15.661 34.0547 15.7708 33.6704 15.9904C33.286 16.21 33.0939 16.512 33.0939 16.8964C33.0939 17.2624 33.2769 17.5369 33.6429 17.72C34.0273 17.903 34.6587 18.0952 35.5372 18.2965C35.7385 18.3514 35.9673 18.4154 36.2235 18.4887C36.4798 18.5436 36.7543 18.6168 37.0471 18.7083C38.3466 19.0926 39.3715 19.5868 40.1219 20.1908C40.8723 20.7947 41.2475 21.6732 41.2475 22.8263C41.2475 24.1806 40.7076 25.2421 39.6277 26.0108C38.5662 26.7612 37.1295 27.1364 35.3176 27.1364Z" fill="#3B71ED"/>
<path d="M134.508 16.6219C134.838 17.5554 135.003 18.6535 135.003 19.9163C135.003 21.1792 134.829 22.3231 134.481 23.348C134.06 24.5193 133.392 25.4527 132.477 26.1482C131.58 26.8254 130.464 27.164 129.128 27.164C127.81 27.164 126.785 26.7064 126.053 25.7913C126.016 25.7364 125.98 25.7181 125.943 25.7364C125.906 25.7547 125.888 25.7913 125.888 25.8462V31.7212C125.888 31.8127 125.852 31.8859 125.778 31.9408C125.723 32.0141 125.65 32.0507 125.559 32.0507H122.347C122.255 32.0507 122.173 32.0141 122.1 31.9408C122.045 31.8859 122.017 31.8127 122.017 31.7212V13.1628C122.017 13.0713 122.045 12.9981 122.1 12.9432C122.173 12.87 122.255 12.8334 122.347 12.8334H125.559C125.65 12.8334 125.723 12.87 125.778 12.9432C125.852 12.9981 125.888 13.0713 125.888 13.1628V14.0688C125.888 14.1237 125.906 14.1603 125.943 14.1786C125.98 14.1786 126.016 14.1603 126.053 14.1237C126.822 13.1171 127.883 12.6138 129.237 12.6138C130.5 12.6138 131.589 12.9707 132.504 13.6844C133.438 14.3799 134.106 15.3591 134.508 16.6219ZM130.308 22.7715C130.766 22.0577 130.994 21.0877 130.994 19.8614C130.994 18.7084 130.802 17.7933 130.418 17.1161C129.997 16.3291 129.32 15.9356 128.386 15.9356C127.544 15.9356 126.913 16.3291 126.492 17.1161C126.108 17.775 125.916 18.6992 125.916 19.8889C125.916 21.1151 126.117 22.0668 126.52 22.744C126.94 23.4761 127.563 23.8421 128.386 23.8421C129.21 23.8421 129.851 23.4852 130.308 22.7715Z" fill="#242424"/>
<path d="M115.535 26.9443C115.443 26.9443 115.361 26.9169 115.288 26.862C115.233 26.7887 115.205 26.7064 115.205 26.6149V8.05649C115.205 7.96498 115.233 7.89177 115.288 7.83686C115.361 7.76366 115.443 7.72705 115.535 7.72705H118.747C118.838 7.72705 118.911 7.76366 118.966 7.83686C119.04 7.89177 119.076 7.96498 119.076 8.05649V26.6149C119.076 26.7064 119.04 26.7887 118.966 26.862C118.911 26.9169 118.838 26.9443 118.747 26.9443H115.535Z" fill="#242424"/>
<path d="M112.709 18.434C112.819 19.1294 112.856 19.9073 112.819 20.7675C112.801 20.9871 112.682 21.0969 112.462 21.0969H103.979C103.869 21.0969 103.833 21.1427 103.869 21.2342C103.924 21.6002 104.025 21.9663 104.171 22.3323C104.647 23.3572 105.617 23.8697 107.081 23.8697C108.253 23.8514 109.177 23.3755 109.854 22.4421C109.927 22.3323 110.01 22.2774 110.101 22.2774C110.156 22.2774 110.22 22.314 110.293 22.3872L112.27 24.3364C112.362 24.4279 112.407 24.5103 112.407 24.5835C112.407 24.6201 112.371 24.6933 112.298 24.8031C111.694 25.5535 110.916 26.1392 109.964 26.5601C109.012 26.9628 107.969 27.1641 106.834 27.1641C105.26 27.1641 103.924 26.8072 102.826 26.0934C101.746 25.3796 100.969 24.3822 100.493 23.101C100.108 22.1859 99.9161 20.9871 99.9161 19.5046C99.9161 18.498 100.053 17.6104 100.328 16.8417C100.749 15.5422 101.481 14.5082 102.524 13.7395C103.586 12.9708 104.839 12.5864 106.285 12.5864C108.116 12.5864 109.58 13.1172 110.678 14.1787C111.794 15.2402 112.471 16.6587 112.709 18.434ZM106.313 15.9357C105.16 15.9357 104.4 16.4756 104.034 17.5555C103.961 17.7934 103.897 18.0862 103.842 18.434C103.842 18.5255 103.888 18.5712 103.979 18.5712H108.729C108.838 18.5712 108.875 18.5255 108.838 18.434C108.747 17.9032 108.701 17.647 108.701 17.6653C108.536 17.1162 108.244 16.6953 107.823 16.4024C107.42 16.0913 106.917 15.9357 106.313 15.9357Z" fill="#242424"/>
<path d="M92.6423 12.6137C94.1065 12.6137 95.2869 13.0621 96.1838 13.9589C97.0806 14.8557 97.529 16.0728 97.529 17.6102V26.6149C97.529 26.7064 97.4924 26.7887 97.4191 26.862C97.3642 26.9169 97.291 26.9443 97.1995 26.9443H93.9875C93.896 26.9443 93.8136 26.9169 93.7404 26.862C93.6855 26.7887 93.6581 26.7064 93.6581 26.6149V18.4064C93.6581 17.6743 93.4476 17.0795 93.0266 16.6219C92.624 16.1643 92.0841 15.9356 91.4069 15.9356C90.7297 15.9356 90.1806 16.1643 89.7597 16.6219C89.357 17.0795 89.1557 17.6743 89.1557 18.4064V26.6149C89.1557 26.7064 89.1191 26.7887 89.0459 26.862C88.991 26.9169 88.9178 26.9443 88.8263 26.9443H85.6143C85.5227 26.9443 85.4404 26.9169 85.3672 26.862C85.3123 26.7887 85.2848 26.7064 85.2848 26.6149V8.05649C85.2848 7.96498 85.3123 7.89177 85.3672 7.83686C85.4404 7.76366 85.5227 7.72705 85.6143 7.72705H88.8263C88.9178 7.72705 88.991 7.76366 89.0459 7.83686C89.1191 7.89177 89.1557 7.96498 89.1557 8.05649V14.1237C89.1557 14.1786 89.174 14.2152 89.2106 14.2335C89.2472 14.2518 89.2747 14.2426 89.293 14.206C90.0434 13.1445 91.1598 12.6137 92.6423 12.6137Z" fill="#242424"/>
</svg>
