<svg width="131" height="23" viewBox="0 0 131 23" fill="none" xmlns="http://www.w3.org/2000/svg">
<g clip-path="url(#clip0_133_329)">
<path d="M1 10.3101C1 6.31974 1 4.32455 2.16351 3.02552C2.27507 2.90096 2.3934 2.78264 2.51795 2.67108C3.81698 1.50757 5.81217 1.50757 9.80255 1.50757H11.1822C15.1726 1.50757 17.1678 1.50757 18.4668 2.67108C18.5914 2.78264 18.7097 2.90096 18.8213 3.02552C19.9848 4.32455 19.9848 6.31974 19.9848 10.3101V11.6898C19.9848 15.6802 19.9848 17.6754 18.8213 18.9744C18.7097 19.0989 18.5914 19.2173 18.4668 19.3288C17.1678 20.4923 15.1726 20.4923 11.1822 20.4923H1V10.3101Z" fill="white"/>
<circle cx="2.05486" cy="19.6657" r="6.07171" fill="black"/>
<rect y="0.3889" width="9.09547" height="18.9136" rx="4.54773" transform="matrix(0.731217 0.682145 -0.731217 0.682145 13.1938 -9.88508)" fill="#3B71ED" stroke="black" stroke-width="0.570113"/>
<rect y="0.3889" width="9.09547" height="18.9136" rx="4.54773" transform="matrix(0.731217 0.682145 -0.731217 0.682145 19.6694 -3.56392)" fill="#EE674E" stroke="black" stroke-width="0.570113"/>
<rect y="0.3889" width="9.09547" height="18.9136" rx="4.54773" transform="matrix(0.731217 0.682145 -0.731217 0.682145 26.0859 2.98104)" fill="#A888CE" stroke="black" stroke-width="0.570113"/>
</g>
<path d="M0.714943 20.4923V20.7774H1H11.1822H11.2032C13.1806 20.7774 14.6916 20.7774 15.8692 20.6297C17.0581 20.4807 17.9469 20.1772 18.657 19.5412C18.7893 19.4226 18.9151 19.2969 19.0336 19.1646C19.6696 18.4545 19.9731 17.5657 20.1222 16.3768C20.2698 15.1991 20.2698 13.6882 20.2698 11.7107V11.6898V10.3101V10.2892C20.2698 8.31171 20.2698 6.80077 20.1222 5.6231C19.9731 4.43419 19.6696 3.54545 19.0336 2.83533C18.9151 2.70299 18.7893 2.57728 18.657 2.45875C17.9469 1.82271 17.0581 1.51923 15.8692 1.37017C14.6916 1.22251 13.1806 1.22251 11.2032 1.22251H11.1822H9.80255H9.78155C7.80412 1.22251 6.29319 1.22251 5.11553 1.37017C3.92662 1.51923 3.03788 1.82271 2.32776 2.45875C2.19543 2.57728 2.06971 2.70299 1.95118 2.83533C1.31514 3.54545 1.01166 4.43419 0.862597 5.6231C0.71494 6.80077 0.714942 8.31169 0.714943 10.2891V10.3101V20.4923Z" stroke="black" stroke-width="0.570113"/>
<path d="M37.9682 6.13042C37.9682 6.20281 37.9392 6.26795 37.8813 6.32585C37.8379 6.36928 37.78 6.391 37.7076 6.391H30.8893C30.8169 6.391 30.7807 6.42719 30.7807 6.49957V9.17042C30.7807 9.24281 30.8169 9.279 30.8893 9.279H35.2539C35.3263 9.279 35.3842 9.30795 35.4276 9.36585C35.4855 9.40928 35.5145 9.46719 35.5145 9.53957V12.0801C35.5145 12.1525 35.4855 12.2177 35.4276 12.2756C35.3842 12.319 35.3263 12.3407 35.2539 12.3407H30.8893C30.8169 12.3407 30.7807 12.3769 30.7807 12.4493V15.3156C30.7807 15.3879 30.8169 15.4241 30.8893 15.4241H37.7076C37.78 15.4241 37.8379 15.4531 37.8813 15.511C37.9392 15.5544 37.9682 15.6123 37.9682 15.6847V18.247C37.9682 18.3194 37.9392 18.3845 37.8813 18.4424C37.8379 18.4859 37.78 18.5076 37.7076 18.5076H27.4367C27.3644 18.5076 27.2992 18.4859 27.2413 18.4424C27.1979 18.3845 27.1762 18.3194 27.1762 18.247V3.56814C27.1762 3.49576 27.1979 3.43785 27.2413 3.39442C27.2992 3.33652 27.3644 3.30757 27.4367 3.30757H37.7076C37.78 3.30757 37.8379 3.33652 37.8813 3.39442C37.9392 3.43785 37.9682 3.49576 37.9682 3.56814V6.13042ZM44.3337 18.6813C43.3059 18.6813 42.4083 18.5438 41.6411 18.2687C40.8739 17.9792 40.2803 17.5811 39.8605 17.0744C39.4552 16.5533 39.2525 15.9598 39.2525 15.2939V15.055C39.2525 14.9826 39.2742 14.9247 39.3177 14.8813C39.3756 14.8234 39.4407 14.7944 39.5131 14.7944H42.4445C42.5169 14.7944 42.5748 14.8234 42.6182 14.8813C42.6761 14.9247 42.7051 14.9826 42.7051 15.055C42.7051 15.33 42.8571 15.5617 43.1611 15.7499C43.4651 15.9236 43.8487 16.0104 44.312 16.0104C44.7173 16.0104 45.0358 15.9453 45.2674 15.815C45.5135 15.6702 45.6365 15.482 45.6365 15.2504C45.6365 15.0188 45.5062 14.8523 45.2457 14.751C44.9996 14.6352 44.5942 14.5266 44.0297 14.4253C43.1177 14.2516 42.3794 14.0417 41.8148 13.7956C41.0765 13.4916 40.4902 13.1152 40.056 12.6664C39.6217 12.2032 39.4045 11.5735 39.4045 10.7773C39.4045 9.64814 39.8388 8.75785 40.7074 8.10642C41.5904 7.44052 42.7485 7.10757 44.1817 7.10757C45.1516 7.10757 45.9984 7.26681 46.7222 7.58528C47.4605 7.88928 48.0323 8.32357 48.4377 8.88814C48.843 9.45271 49.0457 10.1041 49.0457 10.8424C49.0457 10.9148 49.0167 10.9799 48.9588 11.0379C48.9154 11.0813 48.8575 11.103 48.7851 11.103H45.9405C45.8682 11.103 45.803 11.0813 45.7451 11.0379C45.7017 10.9799 45.68 10.9148 45.68 10.8424C45.68 10.5674 45.5497 10.343 45.2891 10.1693C45.0285 9.99557 44.6739 9.90871 44.2251 9.90871C43.8198 9.90871 43.4868 9.98109 43.2262 10.1259C42.9801 10.2561 42.8571 10.4443 42.8571 10.6904C42.8571 10.9365 42.9946 11.1175 43.2697 11.2333C43.5447 11.3346 44.008 11.4504 44.6594 11.5807C45.499 11.7544 46.0853 11.8919 46.4182 11.9933C47.3158 12.2828 48.0106 12.6737 48.5028 13.1659C49.0095 13.658 49.2628 14.3167 49.2628 15.1419C49.2628 16.271 48.8141 17.1468 47.9165 17.7693C47.0335 18.3773 45.8392 18.6813 44.3337 18.6813ZM55.3393 18.6813C54.3114 18.6813 53.4139 18.5438 52.6467 18.2687C51.8794 17.9792 51.2859 17.5811 50.8661 17.0744C50.4608 16.5533 50.2581 15.9598 50.2581 15.2939V15.055C50.2581 14.9826 50.2798 14.9247 50.3233 14.8813C50.3812 14.8234 50.4463 14.7944 50.5187 14.7944H53.4501C53.5225 14.7944 53.5804 14.8234 53.6238 14.8813C53.6817 14.9247 53.7107 14.9826 53.7107 15.055C53.7107 15.33 53.8627 15.5617 54.1667 15.7499C54.4707 15.9236 54.8543 16.0104 55.3175 16.0104C55.7229 16.0104 56.0414 15.9453 56.273 15.815C56.5191 15.6702 56.6421 15.482 56.6421 15.2504C56.6421 15.0188 56.5118 14.8523 56.2513 14.751C56.0052 14.6352 55.5998 14.5266 55.0353 14.4253C54.1233 14.2516 53.385 14.0417 52.8204 13.7956C52.0821 13.4916 51.4958 13.1152 51.0615 12.6664C50.6273 12.2032 50.4101 11.5735 50.4101 10.7773C50.4101 9.64814 50.8444 8.75785 51.713 8.10642C52.596 7.44052 53.7541 7.10757 55.1873 7.10757C56.1572 7.10757 57.004 7.26681 57.7278 7.58528C58.4661 7.88928 59.0379 8.32357 59.4433 8.88814C59.8486 9.45271 60.0513 10.1041 60.0513 10.8424C60.0513 10.9148 60.0223 10.9799 59.9644 11.0379C59.921 11.0813 59.8631 11.103 59.7907 11.103H56.9461C56.8737 11.103 56.8086 11.0813 56.7507 11.0379C56.7073 10.9799 56.6855 10.9148 56.6855 10.8424C56.6855 10.5674 56.5553 10.343 56.2947 10.1693C56.0341 9.99557 55.6794 9.90871 55.2307 9.90871C54.8254 9.90871 54.4924 9.98109 54.2318 10.1259C53.9857 10.2561 53.8627 10.4443 53.8627 10.6904C53.8627 10.9365 54.0002 11.1175 54.2753 11.2333C54.5503 11.3346 55.0135 11.4504 55.665 11.5807C56.5046 11.7544 57.0909 11.8919 57.4238 11.9933C58.3214 12.2828 59.0162 12.6737 59.5084 13.1659C60.0151 13.658 60.2684 14.3167 60.2684 15.1419C60.2684 16.271 59.8196 17.1468 58.9221 17.7693C58.0391 18.3773 56.8448 18.6813 55.3393 18.6813ZM66.3428 7.10757C67.3127 7.10757 68.1885 7.27404 68.9702 7.607C69.7519 7.92547 70.3672 8.37423 70.8159 8.95328C71.2647 9.51785 71.4891 10.1476 71.4891 10.8424V18.247C71.4891 18.3194 71.4601 18.3845 71.4022 18.4424C71.3588 18.4859 71.3009 18.5076 71.2285 18.5076H68.1451C68.0727 18.5076 68.0076 18.4859 67.9497 18.4424C67.9062 18.3845 67.8845 18.3194 67.8845 18.247V17.487C67.8845 17.4291 67.87 17.4001 67.8411 17.4001C67.8121 17.3857 67.7832 17.4074 67.7542 17.4653C67.2041 18.2759 66.2632 18.6813 64.9314 18.6813C63.7733 18.6813 62.8468 18.4135 62.1519 17.8779C61.4716 17.3278 61.1314 16.5243 61.1314 15.4676C61.1314 14.3529 61.515 13.4916 62.2822 12.8836C63.0639 12.2756 64.1931 11.9716 65.6697 11.9716H67.7759C67.8483 11.9716 67.8845 11.9354 67.8845 11.863V11.4504C67.8845 11.0596 67.7542 10.7556 67.4937 10.5384C67.2331 10.3068 66.8712 10.191 66.4079 10.191C66.0605 10.191 65.7565 10.2561 65.4959 10.3864C65.2498 10.5167 65.0906 10.6832 65.0182 10.8859C64.9458 11.0451 64.8445 11.1175 64.7142 11.103L61.5874 10.6904C61.4137 10.6615 61.3268 10.5963 61.3268 10.495C61.3847 9.85804 61.6308 9.28623 62.0651 8.77957C62.5138 8.25842 63.1074 7.85309 63.8457 7.56357C64.5984 7.25957 65.4308 7.10757 66.3428 7.10757ZM65.9954 16.0973C66.5455 16.0973 66.9942 15.9598 67.3417 15.6847C67.7036 15.3952 67.8845 15.0188 67.8845 14.5556V14.0344C67.8845 13.962 67.8483 13.9259 67.7759 13.9259H66.4731C65.923 13.9259 65.4959 14.0199 65.1919 14.2081C64.9024 14.3963 64.7577 14.6786 64.7577 15.055C64.7577 15.3735 64.8662 15.6268 65.0834 15.815C65.3005 16.0032 65.6045 16.0973 65.9954 16.0973ZM73.0211 22.8287C72.9777 22.8287 72.9415 22.7998 72.9126 22.7419C72.8836 22.6984 72.8691 22.6405 72.8691 22.5681V20.1361C72.8691 19.9624 72.9488 19.8756 73.108 19.8756C74.0345 19.8756 74.7004 19.7887 75.1057 19.615C75.511 19.4413 75.7571 19.0939 75.844 18.5727C75.8585 18.5438 75.8585 18.5003 75.844 18.4424L72.348 7.56357C72.3335 7.53461 72.3263 7.49842 72.3263 7.455C72.3263 7.32471 72.4059 7.25957 72.5651 7.25957H75.844C75.9888 7.25957 76.0828 7.33195 76.1263 7.47671L77.6246 13.9041C77.639 13.962 77.6608 13.991 77.6897 13.991C77.7187 13.991 77.7404 13.962 77.7548 13.9041L79.2531 7.47671C79.2966 7.33195 79.3907 7.25957 79.5354 7.25957H82.7491C82.836 7.25957 82.9011 7.28852 82.9446 7.34642C82.988 7.38985 82.9952 7.46223 82.9663 7.56357L79.2966 18.7247C78.9347 19.8104 78.551 20.6283 78.1457 21.1784C77.7548 21.743 77.1758 22.1556 76.4086 22.4161C75.6558 22.6912 74.5773 22.8287 73.1731 22.8287H73.0211Z" fill="#3B3B3B"/>
<path d="M96.5752 3.56814C96.5752 3.49576 96.5969 3.43785 96.6403 3.39442C96.6982 3.33652 96.7634 3.30757 96.8358 3.30757H99.9192C99.9916 3.30757 100.049 3.33652 100.093 3.39442C100.151 3.43785 100.18 3.49576 100.18 3.56814V18.247C100.18 18.3194 100.151 18.3845 100.093 18.4424C100.049 18.4859 99.9916 18.5076 99.9192 18.5076H96.8358C96.7634 18.5076 96.6982 18.4859 96.6403 18.4424C96.5969 18.3845 96.5752 18.3194 96.5752 18.247V12.471C96.5752 12.3986 96.539 12.3624 96.4666 12.3624H92.4061C92.3337 12.3624 92.2975 12.3986 92.2975 12.471V18.247C92.2975 18.3194 92.2685 18.3845 92.2106 18.4424C92.1672 18.4859 92.1093 18.5076 92.0369 18.5076H88.9535C88.8811 18.5076 88.816 18.4859 88.7581 18.4424C88.7146 18.3845 88.6929 18.3194 88.6929 18.247V3.56814C88.6929 3.49576 88.7146 3.43785 88.7581 3.39442C88.816 3.33652 88.8811 3.30757 88.9535 3.30757H92.0369C92.1093 3.30757 92.1672 3.33652 92.2106 3.39442C92.2685 3.43785 92.2975 3.49576 92.2975 3.56814V9.17042C92.2975 9.24281 92.3337 9.279 92.4061 9.279H96.4666C96.539 9.279 96.5752 9.24281 96.5752 9.17042V3.56814ZM112.386 11.9064C112.459 12.3407 112.48 12.9125 112.451 13.6219C112.437 13.7956 112.343 13.8824 112.169 13.8824H105.546C105.517 13.8824 105.488 13.8969 105.459 13.9259C105.43 13.9403 105.423 13.962 105.438 13.991C105.467 14.1502 105.539 14.3601 105.655 14.6207C105.829 14.9247 106.089 15.1708 106.437 15.359C106.784 15.5472 107.211 15.6413 107.718 15.6413C108.63 15.6413 109.346 15.3445 109.867 14.751C109.925 14.6786 109.99 14.6424 110.063 14.6424C110.135 14.6424 110.193 14.6714 110.237 14.7293L111.909 16.6401C111.966 16.6836 111.995 16.7415 111.995 16.8139C111.995 16.8718 111.966 16.9297 111.909 16.9876C111.402 17.5377 110.772 17.9575 110.019 18.247C109.281 18.5365 108.47 18.6813 107.587 18.6813C106.27 18.6813 105.148 18.399 104.222 17.8344C103.31 17.2554 102.651 16.4519 102.246 15.4241C101.942 14.7003 101.79 13.7956 101.79 12.7099C101.79 11.9571 101.905 11.2333 102.137 10.5384C102.513 9.46719 103.129 8.62757 103.983 8.01957C104.851 7.39709 105.879 7.08585 107.066 7.08585C108.022 7.08585 108.876 7.29576 109.629 7.71557C110.381 8.1209 110.989 8.69271 111.453 9.431C111.93 10.1548 112.241 10.9799 112.386 11.9064ZM107.066 10.191C106.313 10.191 105.814 10.5457 105.568 11.255C105.51 11.4142 105.474 11.5662 105.459 11.711C105.43 11.7834 105.459 11.8196 105.546 11.8196H108.63C108.688 11.8196 108.717 11.7906 108.717 11.7327C108.717 11.6169 108.688 11.4721 108.63 11.2984C108.528 10.9365 108.34 10.6615 108.065 10.4733C107.805 10.2851 107.472 10.191 107.066 10.191ZM114.184 18.5076C114.112 18.5076 114.047 18.4859 113.989 18.4424C113.945 18.3845 113.924 18.3194 113.924 18.247V3.56814C113.924 3.49576 113.945 3.43785 113.989 3.39442C114.047 3.33652 114.112 3.30757 114.184 3.30757H117.268C117.34 3.30757 117.398 3.33652 117.441 3.39442C117.499 3.43785 117.528 3.49576 117.528 3.56814V18.247C117.528 18.3194 117.499 18.3845 117.441 18.4424C117.398 18.4859 117.34 18.5076 117.268 18.5076H114.184ZM129.884 10.4081C130.116 11.1899 130.232 12.0295 130.232 12.927C130.232 13.9548 130.08 14.8668 129.776 15.663C129.443 16.5605 128.907 17.2916 128.169 17.8561C127.445 18.4062 126.562 18.6813 125.52 18.6813C124.477 18.6813 123.688 18.3411 123.153 17.6607C123.124 17.6173 123.095 17.6028 123.066 17.6173C123.037 17.6318 123.023 17.6607 123.023 17.7041V22.2207C123.023 22.2931 122.994 22.351 122.936 22.3944C122.892 22.4523 122.834 22.4813 122.762 22.4813H119.679C119.606 22.4813 119.541 22.4523 119.483 22.3944C119.44 22.351 119.418 22.2931 119.418 22.2207V7.54185C119.418 7.46947 119.44 7.41157 119.483 7.36814C119.541 7.31023 119.606 7.28128 119.679 7.28128H122.762C122.834 7.28128 122.892 7.31023 122.936 7.36814C122.994 7.41157 123.023 7.46947 123.023 7.54185V8.25842C123.023 8.30185 123.037 8.33081 123.066 8.34528C123.095 8.34528 123.124 8.33081 123.153 8.30185C123.732 7.50566 124.564 7.10757 125.65 7.10757C126.634 7.10757 127.503 7.40433 128.256 7.99785C129.008 8.5769 129.551 9.38033 129.884 10.4081ZM126.041 14.8161C126.33 14.3239 126.475 13.6725 126.475 12.8619C126.475 12.0801 126.345 11.4649 126.084 11.0161C125.78 10.466 125.324 10.191 124.716 10.191C124.137 10.191 123.696 10.466 123.392 11.0161C123.146 11.5083 123.023 12.1308 123.023 12.8836C123.023 13.6942 123.16 14.3457 123.435 14.8379C123.739 15.3445 124.166 15.5979 124.716 15.5979C125.31 15.5979 125.751 15.3373 126.041 14.8161Z" fill="#3B71ED"/>
<defs>
<clipPath id="clip0_133_329">
<path d="M1 10.3101C1 6.31974 1 4.32455 2.16351 3.02552C2.27507 2.90096 2.3934 2.78264 2.51795 2.67108C3.81698 1.50757 5.81217 1.50757 9.80255 1.50757H11.1822C15.1726 1.50757 17.1678 1.50757 18.4668 2.67108C18.5914 2.78264 18.7097 2.90096 18.8213 3.02552C19.9848 4.32455 19.9848 6.31974 19.9848 10.3101V11.6898C19.9848 15.6802 19.9848 17.6754 18.8213 18.9744C18.7097 19.0989 18.5914 19.2173 18.4668 19.3288C17.1678 20.4923 15.1726 20.4923 11.1822 20.4923H1V10.3101Z" fill="white"/>
</clipPath>
</defs>
</svg>
