<svg width="32" height="32" viewBox="0 0 32 32" fill="none" xmlns="http://www.w3.org/2000/svg">
<g clip-path="url(#clip0_579_2962)">
<path fill-rule="evenodd" clip-rule="evenodd" d="M4.3945 11.8882C4.24436 11.8952 4.09978 11.9471 3.97949 12.0372C3.85921 12.1274 3.76878 12.2516 3.71994 12.3937C3.67109 12.5358 3.66608 12.6894 3.70555 12.8344C3.74503 12.9794 3.82716 13.1093 3.94131 13.207L9.71894 18.1486L16.574 14.8856C16.7536 14.8001 16.9598 14.7895 17.1473 14.856C17.3347 14.9226 17.488 15.0609 17.5735 15.2405C17.659 15.4201 17.6697 15.6263 17.6031 15.8137C17.5366 16.0012 17.3983 16.1545 17.2187 16.24L10.3636 19.503L10.5557 27.1031C10.5596 27.2534 10.6086 27.399 10.6963 27.5211C10.7839 27.6432 10.9063 27.7361 11.0474 27.7878C11.1885 27.8395 11.3419 27.8477 11.4877 27.8111C11.6335 27.7746 11.765 27.6951 11.8651 27.583L25.5824 12.1936C25.6805 12.0834 25.7439 11.9468 25.7647 11.8008C25.7855 11.6547 25.7628 11.5058 25.6994 11.3726C25.636 11.2395 25.5347 11.1279 25.4083 11.052C25.2818 10.9761 25.1358 10.9391 24.9885 10.9457L4.3945 11.8882Z" fill="#3B71ED"/>
</g>
<defs>
<clipPath id="clip0_579_2962">
<rect width="24" height="24" fill="white" transform="translate(0 10.3149) rotate(-25.454)"/>
</clipPath>
</defs>
</svg>
